<svg version="1.1" xmlns="http://www.w3.org/2000/svg" height="64px" width="64px" xmlns:xlink="http://www.w3.org/1999/xlink" x="0px" y="0px"
	 viewBox="0 0 64 64" style="enable-background:new 0 0 64 64;" xml:space="preserve">
<g id="linkedin">
	<path d="M59.263,0H4.724C2.118,0,0,2.066,0,4.613v54.769C0,61.931,2.118,64,4.724,64h54.539
		C61.873,64,64,61.931,64,59.382V4.613C64,2.066,61.873,0,59.263,0z M18.982,54.536H9.489V23.994h9.493V54.536z M14.237,19.819
		c-3.042,0-5.505-2.467-5.505-5.505c0-3.036,2.463-5.502,5.505-5.502c3.035,0,5.501,2.466,5.501,5.502
		C19.738,17.352,17.272,19.819,14.237,19.819z M54.535,54.536h-9.486V39.684c0-3.543-0.065-8.099-4.933-8.099
		c-4.94,0-5.696,3.859-5.696,7.843v15.109h-9.486V23.994h9.106v4.173h0.126c1.266-2.401,4.363-4.933,8.981-4.933
		c9.612,0,11.387,6.326,11.387,14.549V54.536z"/>
</g>
<g id="facebook">
	<path d="M60.468,0H3.532C1.581,0,0,1.581,0,3.532v56.935C0,62.418,1.581,64,3.532,64h30.652
		V39.216h-8.34v-9.659h8.34v-7.123c0-8.266,5.049-12.768,12.423-12.768c3.532,0,6.568,0.263,7.453,0.38v8.639l-5.115,0.002
		c-4.01,0-4.787,1.906-4.787,4.702v6.167h9.565l-1.245,9.659h-8.319V64h16.309C62.418,64,64,62.418,64,60.468V3.532
		C64,1.581,62.418,0,60.468,0z"/>
</g>
<g id="instagram">
	<g>
		<path d="M63.807,18.806c-0.155-3.406-0.696-5.732-1.487-7.768c-0.818-2.104-1.912-3.889-3.691-5.668
			c-1.779-1.779-3.564-2.873-5.668-3.691c-2.036-0.791-4.362-1.332-7.768-1.487C41.78,0.037,40.691,0,32,0s-9.78,0.037-13.194,0.193
			C15.4,0.348,13.074,0.889,11.039,1.68C8.935,2.498,7.15,3.592,5.371,5.371C3.592,7.15,2.498,8.934,1.68,11.039
			c-0.791,2.035-1.332,4.362-1.487,7.768C0.037,22.22,0,23.309,0,32c0,8.691,0.037,9.78,0.193,13.194
			c0.155,3.406,0.696,5.732,1.487,7.768c0.818,2.104,1.912,3.889,3.691,5.668c1.779,1.779,3.564,2.873,5.668,3.691
			c2.036,0.791,4.362,1.332,7.768,1.487C22.22,63.963,23.309,64,32,64s9.78-0.037,13.194-0.193c3.406-0.155,5.732-0.696,7.768-1.487
			c2.104-0.818,3.889-1.912,5.668-3.691c1.779-1.779,2.873-3.564,3.691-5.668c0.791-2.036,1.332-4.362,1.487-7.768
			C63.963,41.78,64,40.691,64,32C64,23.309,63.963,22.22,63.807,18.806z M58.048,44.931c-0.142,3.12-0.664,4.814-1.102,5.942
			c-0.581,1.494-1.274,2.56-2.394,3.679c-1.12,1.12-2.186,1.813-3.679,2.394c-1.128,0.438-2.822,0.96-5.942,1.102
			c-3.374,0.154-4.386,0.187-12.931,0.187s-9.557-0.033-12.931-0.187c-3.12-0.142-4.814-0.664-5.942-1.102
			c-1.494-0.58-2.56-1.274-3.679-2.394c-1.12-1.12-1.813-2.186-2.394-3.679c-0.438-1.128-0.959-2.822-1.102-5.942
			C5.798,41.556,5.766,40.544,5.766,32s0.033-9.556,0.187-12.931c0.142-3.12,0.664-4.814,1.102-5.942
			c0.581-1.494,1.274-2.56,2.394-3.679c1.12-1.12,2.186-1.813,3.679-2.394c1.128-0.438,2.822-0.959,5.942-1.102
			C22.444,5.798,23.456,5.766,32,5.766s9.556,0.033,12.931,0.187c3.12,0.142,4.814,0.664,5.942,1.102
			c1.494,0.581,2.56,1.274,3.679,2.394c1.12,1.12,1.813,2.186,2.394,3.679c0.438,1.128,0.959,2.822,1.102,5.942
			c0.154,3.374,0.187,4.386,0.187,12.931S58.202,41.556,58.048,44.931z"/>
		<path d="M32,15.568c-9.075,0-16.432,7.357-16.432,16.432S22.925,48.432,32,48.432S48.432,41.075,48.432,32
			S41.075,15.568,32,15.568z M32,42.667c-5.891,0-10.667-4.776-10.667-10.667c0-5.891,4.776-10.667,10.667-10.667
			S42.667,26.109,42.667,32C42.667,37.891,37.891,42.667,32,42.667z"/>
		<circle cx="49.082" cy="14.918" r="3.84"/>
	</g>
</g>
<g id="twitter">
	<path d="M58,0H6C2.686,0,0,2.686,0,6v52c0,3.314,2.686,6,6,6h52c3.314,0,6-2.686,6-6V6
		C64,2.686,61.314,0,58,0z M49.422,22.797c0.017,0.38,0.026,0.762,0.026,1.147c0,11.713-8.915,25.219-25.218,25.219
		c-5.005,0-9.664-1.467-13.587-3.982c0.693,0.082,1.399,0.124,2.114,0.124c4.153,0,7.974-1.417,11.008-3.794
		c-3.879-0.072-7.152-2.634-8.28-6.156c0.541,0.103,1.096,0.159,1.668,0.159c0.808,0,1.591-0.108,2.335-0.311
		c-4.055-0.814-7.11-4.397-7.11-8.691c0-0.037,0-0.074,0.001-0.111c1.195,0.664,2.562,1.063,4.015,1.109
		c-2.378-1.589-3.943-4.302-3.943-7.377c0-1.624,0.437-3.147,1.2-4.456c4.372,5.363,10.903,8.891,18.269,9.261
		c-0.151-0.649-0.229-1.325-0.229-2.02c0-4.895,3.969-8.863,8.864-8.863c2.549,0,4.853,1.076,6.47,2.799
		c2.019-0.398,3.916-1.135,5.628-2.151c-0.662,2.07-2.067,3.807-3.897,4.904c1.793-0.214,3.501-0.691,5.091-1.396
		C52.656,19.987,51.153,21.548,49.422,22.797z"/>
</g>
</svg>
