<?xml version="1.0" encoding="utf-8"?>
<!-- Generator: Adobe Illustrator 18.1.1, SVG Export Plug-In . SVG Version: 6.00 Build 0)  -->
<svg version="1.1" xmlns="http://www.w3.org/2000/svg" xmlns:xlink="http://www.w3.org/1999/xlink" x="0px" y="0px"
	 viewBox="0 0 32 32" style="enable-background:new 0 0 32 32;" xml:space="preserve">
<g id="icons">
	<g>
		<path d="M27,21c-1.105,0-2,0.895-2,2c0,0.227,0.046,0.442,0.116,0.646c-4.221,3.121-10.013,3.121-14.233,0.003
			C10.954,23.444,11,23.228,11,23c0-1.105-0.895-2-2-2c-0.228,0-0.444,0.046-0.649,0.117c-3.118-4.22-3.117-10.012,0.003-14.233
			C8.558,6.954,8.773,7,9,7c1.105,0,2-0.895,2-2c0-1.105-0.895-2-2-2C7.895,3,7,3.895,7,5c0,0.515,0.2,0.979,0.519,1.333
			c-2.842,3.878-3.266,8.967-1.273,13.205l-2.295-2.295C3.971,17.164,4,17.086,4,17c0-0.552-0.448-1-1-1c-0.552,0-1,0.448-1,1
			c0,0.552,0.448,1,1,1c0.086,0,0.164-0.029,0.244-0.049l4.039,4.039C7.108,22.287,7,22.63,7,23c0,1.105,0.895,2,2,2
			c0.37,0,0.713-0.108,1.01-0.283l4.039,4.039C14.029,28.836,14,28.914,14,29c0,0.552,0.448,1,1,1c0.552,0,1-0.448,1-1
			c0-0.552-0.448-1-1-1c-0.086,0-0.164,0.029-0.244,0.049l-2.295-2.295c4.238,1.993,9.328,1.569,13.205-1.273
			C26.021,24.8,26.485,25,27,25c1.105,0,2-0.895,2-2C29,21.895,28.105,21,27,21z M9,4c0.552,0,1,0.448,1,1c0,0.552-0.448,1-1,1
			C8.448,6,8,5.552,8,5C8,4.448,8.448,4,9,4z M27,24c-0.552,0-1-0.448-1-1c0-0.552,0.448-1,1-1c0.552,0,1,0.448,1,1
			C28,23.552,27.552,24,27,24z"/>
		<path d="M20,11c0-0.552,0.448-1,1-1c0.552,0,1,0.448,1,1c0,0.552-0.448,1-1,1c-0.086,0-0.164-0.029-0.244-0.049l-5.696,5.696
			L23,15l4.231-6.769L28,9l2-2l-5-5l-2,2l0.769,0.769L17,9l-2.646,7.939l5.696-5.696C20.029,11.164,20,11.086,20,11z"/>
	</g>
</g>
<g id="guide" style="display:none;">
</g>
<g id="nyt_x5F_exporter_x5F_info" style="display:none;">
</g>
</svg>
