<?xml version="1.0" encoding="utf-8"?>
<!-- Generator: Adobe Illustrator 18.1.1, SVG Export Plug-In . SVG Version: 6.00 Build 0)  -->
<svg version="1.1" xmlns="http://www.w3.org/2000/svg" xmlns:xlink="http://www.w3.org/1999/xlink" x="0px" y="0px"
	 viewBox="0 0 32 32" style="enable-background:new 0 0 32 32;" xml:space="preserve">
<g id="icons">
	<g>
		<rect x="15" y="15" width="2" height="2"/>
		<path d="M30,6V2h-4v1.5h-8V2h-4v1.5H6V2H2v4h1.5v8H2v4h1.5v8H2v4h4v-1.5h8V30h4v-1.5h8V30h4v-4h-1.5v-8H30v-4h-1.5V6H30z M27,3h2
			v2h-2V3z M15,3h2v2h-2V3z M3,5V3h2v2H3z M3,17v-2h2v2H3z M5,29H3v-2h2V29z M17,29h-2v-2h2V29z M29,27v2h-2v-2H29z M29,15v2h-2v-2
			H29z M27.5,14H26v4h1.5v8H26v1.5h-8V26h-4v1.5H6V26H4.5v-8H6v-4H4.5V6H6V4.5h8V6h4V4.5h8V6h1.5V14z"/>
	</g>
</g>
<g id="guide" style="display:none;">
</g>
<g id="nyt_x5F_exporter_x5F_info" style="display:none;">
</g>
</svg>
