<?xml version="1.0" encoding="utf-8"?>
<!-- Generator: Adobe Illustrator 18.1.1, SVG Export Plug-In . SVG Version: 6.00 Build 0)  -->
<svg version="1.1" xmlns="http://www.w3.org/2000/svg" xmlns:xlink="http://www.w3.org/1999/xlink" x="0px" y="0px"
	 viewBox="0 0 32 32" style="enable-background:new 0 0 32 32;" xml:space="preserve">
<g id="icons">
	<g>
		<polygon points="19,11 8,11 7,12 3,12 3,8 2,8 2,30 3,30 3,27 8,27 9,28 24,28 25,27 30,27 30,26 25,26 24,25 9,25 8,26 3,26 
			3,20 16,20 17,21 28,21 29,20 30,20 30,19 29,19 28,18 17,18 16,19 3,19 3,13 7,13 8,14 19,14 20,13 30,13 30,12 20,12 		"/>
		<rect x="2" y="2" width="1" height="3"/>
		<rect x="6" y="2" width="1" height="3"/>
		<rect x="10" y="2" width="1" height="3"/>
		<rect x="14" y="2" width="1" height="3"/>
		<rect x="18" y="2" width="1" height="3"/>
		<rect x="22" y="2" width="1" height="3"/>
		<rect x="26" y="2" width="1" height="3"/>
		<rect x="2" y="6" width="28" height="1"/>
	</g>
</g>
<g id="guide" style="display:none;">
</g>
<g id="nyt_x5F_exporter_x5F_info" style="display:none;">
	<g style="display:inline;">
		<path d="M5.879,3.687l5.565-2.867v0.828L6.755,3.998v0.023l4.689,2.352V7.2L5.879,4.334V3.687z"/>
		<path d="M13.115,2.967c0-0.6-0.012-1.092-0.048-1.571h0.936l0.06,0.959h0.024c0.288-0.552,0.959-1.091,1.919-1.091
			c0.803,0,2.051,0.479,2.051,2.471V7.2h-1.056V3.854c0-0.936-0.348-1.716-1.343-1.716c-0.695,0-1.235,0.492-1.415,1.08
			c-0.048,0.132-0.072,0.312-0.072,0.491V7.2h-1.056V2.967z"/>
		<path d="M20.004,1.396l1.271,3.43c0.132,0.384,0.276,0.84,0.372,1.188h0.024c0.107-0.348,0.228-0.791,0.371-1.211l1.151-3.406
			h1.115l-1.583,4.138c-0.755,1.991-1.271,3.01-1.99,3.634c-0.516,0.456-1.032,0.636-1.296,0.684l-0.264-0.888
			c0.264-0.084,0.611-0.252,0.924-0.516c0.288-0.228,0.647-0.636,0.888-1.175c0.048-0.108,0.084-0.192,0.084-0.252
			c0-0.061-0.024-0.145-0.072-0.276l-2.146-5.349H20.004z"/>
		<path d="M26.542-0.271v1.667h1.512v0.804h-1.512v3.13c0,0.72,0.204,1.128,0.792,1.128c0.275,0,0.479-0.036,0.611-0.072
			l0.048,0.791C27.79,7.26,27.466,7.32,27.058,7.32c-0.491,0-0.887-0.156-1.139-0.444c-0.3-0.312-0.408-0.827-0.408-1.511V2.199
			h-0.899V1.396h0.899V0.004L26.542-0.271z"/>
		<path d="M34.364,8.1v0.6h-5.997V8.1H34.364z"/>
		<path d="M5.879,18.086l5.565-2.867v0.828l-4.689,2.351v0.023l4.689,2.352V21.6l-5.565-2.866V18.086z"/>
		<path d="M13.115,17.366c0-0.6-0.012-1.092-0.048-1.571h0.936l0.06,0.959h0.024c0.288-0.552,0.959-1.091,1.919-1.091
			c0.803,0,2.051,0.479,2.051,2.471V21.6h-1.056v-3.346c0-0.936-0.348-1.716-1.343-1.716c-0.695,0-1.235,0.492-1.415,1.08
			c-0.048,0.132-0.072,0.312-0.072,0.491v3.49h-1.056V17.366z"/>
		<path d="M20.004,15.795l1.271,3.43c0.132,0.384,0.276,0.84,0.372,1.188h0.024c0.107-0.348,0.228-0.791,0.371-1.211l1.151-3.406
			h1.115l-1.583,4.138c-0.755,1.991-1.271,3.011-1.99,3.634c-0.516,0.456-1.032,0.636-1.296,0.684l-0.264-0.888
			c0.264-0.084,0.611-0.252,0.924-0.516c0.288-0.228,0.647-0.636,0.888-1.175c0.048-0.108,0.084-0.192,0.084-0.252
			c0-0.061-0.024-0.145-0.072-0.276l-2.146-5.349H20.004z"/>
		<path d="M26.542,14.128v1.667h1.512v0.804h-1.512v3.13c0,0.72,0.204,1.128,0.792,1.128c0.275,0,0.479-0.036,0.611-0.072
			l0.048,0.791c-0.203,0.084-0.527,0.145-0.936,0.145c-0.491,0-0.887-0.156-1.139-0.444c-0.3-0.312-0.408-0.827-0.408-1.511v-3.166
			h-0.899v-0.804h0.899v-1.392L26.542,14.128z"/>
		<path d="M34.364,22.499v0.6h-5.997v-0.6H34.364z"/>
		<path d="M5.879,32.486l5.565-2.867v0.828l-4.689,2.351v0.023l4.689,2.352V36l-5.565-2.866V32.486z"/>
		<path d="M13.115,31.767c0-0.6-0.012-1.092-0.048-1.571h0.936l0.06,0.959h0.024c0.288-0.552,0.959-1.091,1.919-1.091
			c0.803,0,2.051,0.479,2.051,2.471V36h-1.056v-3.346c0-0.936-0.348-1.716-1.343-1.716c-0.695,0-1.235,0.492-1.415,1.08
			c-0.048,0.132-0.072,0.312-0.072,0.491V36h-1.056V31.767z"/>
		<path d="M20.004,30.195l1.271,3.43c0.132,0.384,0.276,0.84,0.372,1.188h0.024c0.107-0.348,0.228-0.791,0.371-1.211l1.151-3.406
			h1.115l-1.583,4.138c-0.755,1.991-1.271,3.011-1.99,3.634c-0.516,0.456-1.032,0.636-1.296,0.684l-0.264-0.888
			c0.264-0.084,0.611-0.252,0.924-0.516c0.288-0.228,0.647-0.636,0.888-1.175c0.048-0.108,0.084-0.192,0.084-0.252
			c0-0.061-0.024-0.145-0.072-0.276l-2.146-5.349H20.004z"/>
		<path d="M26.542,28.528v1.667h1.512v0.804h-1.512v3.13c0,0.72,0.204,1.128,0.792,1.128c0.275,0,0.479-0.036,0.611-0.072
			l0.048,0.791c-0.203,0.084-0.527,0.145-0.936,0.145c-0.491,0-0.887-0.156-1.139-0.444c-0.3-0.312-0.408-0.827-0.408-1.511v-3.166
			h-0.899v-0.804h0.899v-1.392L26.542,28.528z"/>
	</g>
</g>
</svg>
