<svg xmlns="http://www.w3.org/2000/svg" viewBox="0 0 650 130"><defs><style>.a{fill:#d22938;}</style></defs><title>logo</title><path class="a" d="M624.874,56.509c-5.445,1.034-6.857,2.481-6.857,6.306V83.079H607.429V47.1h10.286v3.825a15.039,15.039,0,0,1,4.134-2.791A20.072,20.072,0,0,1,628,46.688V56.1ZM578.79,67.778c0,4.859,3.429,8.788,8.168,8.788a9.662,9.662,0,0,0,9.176-6.306L604.3,74.5a20.144,20.144,0,0,1-18.05,10.442c-10.891,0-18.454-7.03-18.454-18.919,0-9.1,4.437-19.953,18.756-19.953,13.613,0,18.05,10.855,18.05,20.987v0.31H578.689l0.1,0.414h0Zm15.025-7.03c0-4.239-2.723-7.03-7.16-7.03-5.143,0-7.16,4.239-7.462,7.03h14.622Zm-39.933,0c0-3.515-1.008-6.306-5.143-6.306-4.74,0-5.445,3.515-5.445,8.374V83.079H532.706V47.1H543.6v3.1c1.714-2.068,5.143-4.239,10.185-4.239,7.462,0,11.294,3.825,11.294,11.165V82.976H554.487V60.645h-0.605v0.1Zm-38.521,0c0-3.515-1.008-6.306-5.143-6.306-4.74,0-5.445,3.515-5.445,8.374V83.079H494.185V47.1h10.891v3.1c1.714-2.068,5.143-4.239,10.185-4.239,7.462,0,11.294,3.825,11.294,11.165V82.976H515.966V60.645h-0.605v0.1ZM477.849,79.977c-2.723,1.758-5.445,4.239-11.294,4.239-8.168,0-11.9-5.893-11.9-11.165,0-4.549,3.025-8.374,7.462-10.442,2.42-1.034,6.454-1.758,14.319-3.515V57.647c0-1.447-.3-4.239-4.134-4.239-4.437,0-5.445,2.791-5.445,4.239H456.37c0-8.064,7.462-11.165,15.328-11.165,6.151,0,15.731,1.758,15.731,10.442v21.3c0,3.1,0,4.239,1.008,5.583H477.849V79.977h0ZM476.84,66.021L469.983,68.5c-3.731,1.034-4.437,2.791-4.437,4.549a3.847,3.847,0,0,0,4.134,3.825c4.134,0,7.462-3.825,7.462-8.788V66.021h-0.3ZM439.63,34.179h10.588v49H439.63v-49ZM417.445,67.055h-9.882V83.182h-12.3v-49h24.2c11.6,0,17.748,5.583,17.748,16.748C437.21,63.539,426.319,67.055,417.445,67.055Zm-2.017-23.778h-7.866v14.68h8.168c5.445,0,9.58-1.447,9.58-7.65C425.008,43.276,419.16,43.276,415.429,43.276Zm-36.5,19.229c0-4.859-1.008-7.65-5.143-7.65-3.731,0-5.445,2.481-5.445,6.617V83.182H357.748V61.472c0-4.859-2.017-6.617-5.143-6.617-4.74,0-5.445,4.549-5.445,7.34V83.182H336.571V47.2H347.16V51.03a13.386,13.386,0,0,1,10.185-4.549,13.113,13.113,0,0,1,10.185,4.239,15.943,15.943,0,0,1,10.891-4.239c6.857,0,11.294,3.515,11.294,10.442v26.57H379.126V62.506h-0.2Zm-70.891,5.273c0,4.859,3.429,8.788,8.168,8.788a9.662,9.662,0,0,0,9.176-6.306l8.168,4.239A20.144,20.144,0,0,1,315.5,84.94c-10.891,0-18.454-7.03-18.454-18.919,0-9.1,4.437-19.953,18.756-19.953,13.613,0,18.05,10.855,18.05,20.987v0.31H307.933v0.414h0.1Zm14.924-7.03c0-4.239-2.723-7.03-7.16-7.03-5.143,0-7.16,4.239-7.462,7.03h14.622Zm-39.832,2.791c0-3.825-.3-8.374-5.445-8.374-4.437,0-5.748,3.515-5.748,9.1V83.492H261.345v-49h10.487V51.237C275.966,47,280,46.378,282.017,46.378c7.462,0,11.6,4.549,11.6,12.2V83.389H283.025l0.1-19.85h0ZM238.05,74.395c6.454,0,8.874-4.549,10.588-7.34l9.58,4.859a24.009,24.009,0,0,1-21.176,12.613c-13.008,0-23.5-9.408-23.5-25.846,0-14.37,9.882-25.846,23.9-25.846a23.683,23.683,0,0,1,20.773,12.613l-9.882,4.859c-1.008-3.825-5.445-7.34-10.588-7.34-7.866,0-11.9,7.34-11.9,15.4C226.151,69.122,231.6,74.395,238.05,74.395ZM181.479,92.9c-2.42,2.481-4.437,2.791-7.462,2.791h-7.866V87.318h4.437c3.025,0,3.731-1.447,3.731-2.791a16.526,16.526,0,0,0-.706-3.515L163.025,47.1h11.294l6.151,25.846L186.622,47.1h11.294L185.311,86.284C184.2,88.765,183.5,90.833,181.479,92.9ZM165.042,67.365H139.126v0.31c0,4.859,3.429,8.788,8.168,8.788a9.662,9.662,0,0,0,9.176-6.306l8.168,4.239a20.144,20.144,0,0,1-18.05,10.442c-10.891,0-18.454-7.03-18.454-18.919,0-9.1,4.437-19.953,18.756-19.953,13.613,0,18.05,10.855,18.05,20.987l0.1,0.414h0Zm-18.05-13.957c-5.143,0-7.16,4.239-7.462,7.03h15.025C153.849,56.509,151.126,53.408,146.992,53.408ZM113.916,34.179H124.5v49H113.916v-49ZM97.176,47.1h10.588V83.492H97.176V47.1Zm0-12.923h10.588v8.374H97.176V34.179Zm-26.622,48.9L61.782,51.65,52.908,83.079H40.2L28,34.179H40.3l7.16,33.6,8.874-33.6H67.227l9.176,33.6,7.16-33.6h12.3l-12.3,49H70.555v-0.1Z"/></svg>