<?xml version="1.0" encoding="utf-8"?>
<!-- Generator: Adobe Illustrator 18.1.1, SVG Export Plug-In . SVG Version: 6.00 Build 0)  -->
<svg version="1.1" xmlns="http://www.w3.org/2000/svg" xmlns:xlink="http://www.w3.org/1999/xlink" x="0px" y="0px"
	 viewBox="0 0 64 64" enable-background="new 0 0 64 64" xml:space="preserve">
<g id="Layer_2">
	<path fill="#FFFFFF" d="M32,55L32,55c-2.761,0-5-2.239-5-5V11c0-2.761,2.239-5,5-5h0c2.761,0,5,2.239,5,5v39
		C37,52.761,34.761,55,32,55z"/>
	<path fill="#FFFFFF" d="M21,14h-1H5c-2.761,0-5,2.239-5,5s2.239,5,5,5h10v2H5c-2.761,0-5,2.239-5,5v13c0,2.761,2.239,5,5,5h15h1
		c2.761,0,5-2.239,5-5V31V19C26,16.239,23.761,14,21,14z"/>
	<path fill="#FFFFFF" d="M43,14h1h15c2.761,0,5,2.239,5,5s-2.239,5-5,5H49v2h10c2.761,0,5,2.239,5,5v13c0,2.761-2.239,5-5,5H44h-1
		c-2.761,0-5-2.239-5-5V31V19C38,16.239,40.239,14,43,14z"/>
</g>
<g id="Layer_1" display="none" opacity="0.5">
	<g display="inline">
		<path fill="#009FE3" d="M20.046,13.741L5.449,13.738c-3.017-0.001-5.462,2.42-5.475,5.411c0.01,2.991,2.455,5.414,5.472,5.414
			l9.774,0.003l-0.001,1.452l-9.774-0.003c-3.023,0-5.475,2.758-5.476,6.162l-0.003,11.042c0,3.403,2.45,6.163,5.473,6.164
			l14.599,0.004c3.024,0.001,5.475-2.759,5.475-6.162l0.002-6.511l0.001-4.531l0.003-13.007l0.001-0.043l-0.003,0
			C25.495,16.153,23.056,13.742,20.046,13.741z"/>
		<path fill="#009FE3" d="M32.302,5.954l-0.528,0c-2.625-0.001-4.754,2.127-4.755,4.752l-0.01,39.276
			c0,2.625,2.127,4.754,4.752,4.754l0.528,0c2.626,0,4.754-2.128,4.754-4.753l0.01-39.276C37.054,8.084,34.927,5.955,32.302,5.954z"
			/>
		<path fill="#009FE3" d="M58.613,26.029l-9.736-0.002l0-1.452l9.737,0.002c3.005,0.001,5.442-2.421,5.454-5.411
			c-0.01-2.991-2.446-5.413-5.451-5.415l-14.543-0.003c-2.998,0-5.428,2.409-5.452,5.39l-0.003,0l0,0.042l-0.003,13.007
			l-0.001,4.531l-0.002,6.51c-0.001,3.403,2.44,6.164,5.452,6.165l14.542,0.004c3.013,0,5.455-2.759,5.455-6.162l0.003-11.042
			C64.066,28.79,61.625,26.03,58.613,26.029z"/>
	</g>
</g>
</svg>
